<svg preserveAspectRatio="none" overflow="visible" style="display: block;" width="41.4332" height="35.0043" viewBox="0 0 41.4332 35.0043" fill="none" xmlns="http://www.w3.org/2000/svg">
<g id="Group 35562">
<path id="Vector" d="M5.70837 16.1443C5.70837 17.9171 5.70837 19.5391 5.70837 21.0856C5.70837 22.6321 5.70837 24.5936 5.70837 26.2155C5.70837 29.6481 5.70837 32.5902 5.70837 35.0043H0.0756076C0.113411 30.1762 0.151215 24.405 0.151215 17.6908C0.151215 10.9767 0.151215 11.6556 0.0756076 7.99677C0.0756076 5.35637 0.0378038 2.71596 0 0.0378418H5.82178C5.82178 2.82912 5.78398 5.88445 5.74618 9.16609C5.74618 11.6933 5.74618 14.032 5.74618 16.182L5.70837 16.1443Z" fill="#FF7653"/>
<path id="Vector_2" d="M28.7312 26.5926C31.4152 29.0444 34.4773 31.8357 37.9553 35.0042H29.9787C27.7861 32.9673 25.5934 30.9681 23.4764 29.0067C18.1461 24.2163 15.1218 21.4627 14.3657 20.7837V20.6329C15.8401 19.1618 19.0156 15.8801 23.8923 10.8634C27.3324 7.31769 30.7726 3.69656 34.1749 0H41.4332C37.6528 3.62112 33.7969 7.50629 29.8275 11.5423C25.48 15.9933 22.7582 18.7846 21.6619 19.9162V20.0293C22.2289 20.5574 24.5727 22.7452 28.769 26.5549L28.7312 26.5926Z" fill="#FF7653"/>
<path id="Vector_3" d="M14.9327 27.347C17.39 29.6102 20.1875 32.1375 23.2874 34.9665H15.3108C13.3828 33.1936 11.4926 31.4585 9.64021 29.7611C8.12806 28.4032 6.80493 27.2339 5.67082 26.1777C2.75993 23.575 1.05876 22.0285 0.491699 21.5381V21.3873C1.4746 20.4065 3.17577 18.6337 5.67082 16.1065C6.91834 14.824 8.39269 13.3152 10.0183 11.6178C13.7608 7.80805 17.4278 3.9606 21.0948 0H28.4665C24.4215 3.84744 20.3009 7.99665 16.0291 12.3345C11.6816 16.7854 8.95975 19.5767 7.82563 20.7083V20.8215C8.39269 21.3495 10.7365 23.5373 14.9327 27.347Z" fill="#FF7653"/>
</g>
</svg>
